<svg width="44" height="47" viewBox="0 0 44 47" fill="none" xmlns="http://www.w3.org/2000/svg">
<path d="M13.5697 32.578H29.9995M13.5697 32.578C13.5697 29.6478 13.5697 15.4771 13.5697 15.4771M13.5697 32.578C13.5697 32.578 14.9937 36.5806 13.5697 38.4385C12.5607 39.755 11.4537 40.6309 9.73101 40.504C8.21106 40.3921 7.25675 39.6841 6.50647 38.4385C5.67038 37.0504 5.63855 35.7262 6.50647 34.3554C7.11725 33.3907 7.81316 33.0201 8.91208 32.578C10.5839 31.9055 13.5697 32.578 13.5697 32.578ZM29.9995 32.578V15.4771M29.9995 32.578C29.9995 32.578 33.3989 32.5486 35.3226 33.3466C37.2212 34.1343 38.2759 34.8743 39.4684 36.469C40.2857 37.5619 40.8288 38.2612 40.9527 39.5913C41.1075 41.2521 40.9481 42.7042 39.4684 43.6264C38.1197 44.467 35.3226 43.6264 35.3226 43.6264C35.3226 43.6264 32.413 42.7256 31.2791 41.3687C29.9836 39.8185 29.9995 36.469 29.9995 36.469V32.578ZM29.9995 15.4771H13.5697M29.9995 15.4771C29.9995 15.4771 28.7898 10.8463 29.9995 8.27159C30.8576 6.44518 31.5353 5.07041 33.5312 4.38064C34.9379 3.89444 35.9368 3.85224 37.3699 4.38064C38.9851 4.97618 39.693 6.26042 39.7755 7.8873C39.8779 9.90482 38.0865 11.5381 37.0628 12.4507C36.0391 13.3634 33.5312 14.4202 33.5312 14.4202L29.9995 15.4771ZM13.5697 15.4771C13.5697 15.4771 10.6641 14.8294 8.91208 14.132C7.19085 13.4469 5.65922 13.4849 4.71506 11.9704C4.03127 10.8735 3.78929 9.96191 4.20323 8.75195C4.73489 7.19792 6.02275 6.49238 7.73487 6.20602C9.37289 5.93205 10.5727 6.28755 11.8295 7.31086C13.0181 8.27861 13.1817 9.29031 13.5697 10.7214C14.0578 12.5213 13.5697 15.4771 13.5697 15.4771Z" stroke="#0457AC" stroke-width="5"/>
<path d="M12.5697 31.578H28.9995M12.5697 31.578C12.5697 28.6478 12.5697 14.4771 12.5697 14.4771M12.5697 31.578C12.5697 31.578 13.9937 35.5806 12.5697 37.4385C11.5607 38.755 10.4537 39.6309 8.73101 39.504C7.21106 39.3921 6.25675 38.6841 5.50647 37.4385C4.67038 36.0504 4.63855 34.7262 5.50647 33.3554C6.11725 32.3907 6.81316 32.0201 7.91208 31.578C9.5839 30.9055 12.5697 31.578 12.5697 31.578ZM28.9995 31.578V14.4771M28.9995 31.578C28.9995 31.578 32.3989 31.5486 34.3226 32.3466C36.2212 33.1343 37.2759 33.8743 38.4684 35.469C39.2857 36.5619 39.8288 37.2612 39.9527 38.5913C40.1075 40.2521 39.9481 41.7042 38.4684 42.6264C37.1197 43.467 34.3226 42.6264 34.3226 42.6264C34.3226 42.6264 31.413 41.7256 30.2791 40.3687C28.9836 38.8185 28.9995 35.469 28.9995 35.469V31.578ZM28.9995 14.4771H12.5697M28.9995 14.4771C28.9995 14.4771 27.7898 9.8463 28.9995 7.27159C29.8576 5.44518 30.5353 4.07041 32.5312 3.38064C33.9379 2.89444 34.9368 2.85224 36.3699 3.38064C37.9851 3.97618 38.693 5.26042 38.7755 6.8873C38.8779 8.90482 37.0865 10.5381 36.0628 11.4507C35.0391 12.3634 32.5312 13.4202 32.5312 13.4202L28.9995 14.4771ZM12.5697 14.4771C12.5697 14.4771 9.66412 13.8294 7.91208 13.132C6.19085 12.4469 4.65922 12.4849 3.71506 10.9704C3.03127 9.87354 2.78929 8.96191 3.20323 7.75195C3.73489 6.19792 5.02275 5.49238 6.73487 5.20602C8.37289 4.93205 9.57273 5.28755 10.8295 6.31086C12.0181 7.27861 12.1817 8.29031 12.5697 9.72145C13.0578 11.5213 12.5697 14.4771 12.5697 14.4771Z" stroke="#0473E3" stroke-width="5"/>
</svg>
